<svg width="1920" height="1080" viewBox="0 0 1920 1080" fill="none" xmlns="http://www.w3.org/2000/svg">
<g clip-path="url(#clip0_3_2)">
<g filter="url(#filter0_d_3_2)">
<path d="M1920 0H0V1080H1920V0Z" fill="#1C1C3D"/>
<path d="M1920 596.552H0V1080H1920V596.552Z" fill="#151530"/>
</g>
<g clip-path="url(#clip1_3_2)">
<path d="M609.492 327.853H437.402C445.203 326.806 452.36 322.956 457.543 317.02C462.726 311.085 465.583 303.465 465.585 295.578C465.585 286.938 462.16 278.651 456.063 272.542C449.967 266.432 441.698 263 433.076 263H144.508C135.887 263 127.618 266.432 121.521 272.542C115.425 278.651 112 286.938 112 295.578C112 299.855 112.841 304.091 114.475 308.043C116.109 311.995 118.503 315.586 121.522 318.611C124.541 321.635 128.125 324.034 132.069 325.67C136.013 327.306 140.24 328.148 144.508 328.147H316.589C308.789 329.198 301.634 333.05 296.453 338.987C291.272 344.925 288.416 352.544 288.415 360.431C288.415 364.709 289.256 368.945 290.89 372.897C292.524 376.849 294.919 380.44 297.937 383.464C300.956 386.488 304.54 388.887 308.484 390.523C312.428 392.16 316.655 393.001 320.924 393H609.492C613.76 393.001 617.987 392.16 621.931 390.523C625.875 388.887 629.459 386.488 632.478 383.464C635.497 380.44 637.891 376.849 639.525 372.897C641.159 368.945 642 364.709 642 360.431C642 351.791 638.575 343.505 632.479 337.395C626.382 331.286 618.113 327.853 609.492 327.853Z" fill="#4052A8"/>
</g>
<g clip-path="url(#clip2_3_2)">
<path d="M959.006 40.2194H779.259C783.372 40.2194 787.445 39.4148 791.244 37.8516C795.044 36.2884 798.497 33.9972 801.405 31.1088C804.313 28.2204 806.62 24.7914 808.194 21.0175C809.768 17.2436 810.578 13.1988 810.578 9.11394C810.579 5.0284 809.77 0.982659 808.196 -2.79221C806.623 -6.56707 804.316 -9.99712 801.408 -12.8864C798.5 -15.7757 795.047 -18.0677 791.246 -19.6314C787.446 -21.1952 783.373 -22 779.259 -22H648.328C640.019 -22 632.051 -18.7219 626.176 -12.8869C620.301 -7.05194 617 0.862009 617 9.11394C617 13.1995 617.81 17.245 619.385 21.0194C620.959 24.7939 623.267 28.2233 626.176 31.1118C629.085 34.0003 632.539 36.2914 636.34 37.8541C640.14 39.4168 644.214 40.2205 648.328 40.2194H680.919C672.611 40.2194 664.643 43.4975 658.768 49.3325C652.892 55.1675 649.592 63.0814 649.592 71.3333C649.592 79.5853 652.892 87.4992 658.768 93.3342C664.643 99.1692 672.611 102.447 680.919 102.447H771.784C767.67 102.446 763.597 103.25 759.796 104.813C755.995 106.375 752.542 108.666 749.632 111.555C746.723 114.443 744.416 117.873 742.841 121.647C741.267 125.422 740.456 129.467 740.456 133.553C740.456 141.805 743.757 149.719 749.632 155.554C755.507 161.389 763.475 164.667 771.784 164.667H846.912C851.025 164.667 855.099 163.862 858.899 162.298C862.699 160.734 866.152 158.442 869.061 155.553C871.969 152.664 874.276 149.234 875.849 145.459C877.423 141.684 878.232 137.638 878.231 133.553C878.231 125.303 874.931 117.391 869.058 111.558C863.184 105.724 855.218 102.447 846.912 102.447H959.006C967.314 102.447 975.283 99.1692 981.158 93.3342C987.033 87.4992 990.333 79.5853 990.333 71.3333C990.333 63.0814 987.033 55.1675 981.158 49.3325C975.283 43.4975 967.314 40.2194 959.006 40.2194Z" fill="#4052A8"/>
</g>
<g clip-path="url(#clip3_3_2)">
<path d="M1756.75 191.217H1651.7C1656.99 191.217 1662.22 190.18 1667.11 188.164C1671.99 186.149 1676.43 183.194 1680.17 179.47C1683.9 175.745 1686.87 171.324 1688.89 166.458C1690.91 161.591 1691.95 156.376 1691.95 151.109C1691.95 145.842 1690.91 140.626 1688.89 135.76C1686.87 130.894 1683.9 126.472 1680.17 122.748C1676.43 119.023 1671.99 116.069 1667.11 114.053C1662.22 112.037 1656.99 111 1651.7 111H1490.7C1480.02 111 1469.79 115.226 1462.24 122.748C1454.69 130.269 1450.45 140.471 1450.45 151.109C1450.45 161.746 1454.69 171.948 1462.24 179.47C1469.79 186.992 1480.02 191.217 1490.7 191.217H1407.25C1396.58 191.217 1386.34 195.443 1378.79 202.965C1371.24 210.487 1367 220.689 1367 231.326V250.891C1367 256.158 1368.04 261.374 1370.06 266.24C1372.09 271.106 1375.05 275.528 1378.79 279.252C1386.34 286.774 1396.58 291 1407.25 291H1756.75C1762.03 291 1767.27 289.963 1772.15 287.947C1777.04 285.931 1781.47 282.977 1785.21 279.252C1788.95 275.528 1791.91 271.106 1793.94 266.24C1795.96 261.374 1797 256.158 1797 250.891V231.326C1797 220.689 1792.76 210.487 1785.21 202.965C1777.66 195.443 1767.42 191.217 1756.75 191.217Z" fill="#4052A8"/>
</g>
<g clip-path="url(#clip4_3_2)">
<path d="M112.468 405.174C138.583 405.174 163.629 413.386 182.095 428.003C200.561 442.621 210.936 462.446 210.936 483.119V736.235H14V483.119C14 462.446 24.3743 442.621 42.8406 428.003C61.3069 413.386 86.3526 405.174 112.468 405.174Z" fill="#0B081C"/>
</g>
<g clip-path="url(#clip5_3_2)">
<path d="M1815.47 456C1841.58 456 1866.63 464.212 1885.1 478.83C1903.56 493.447 1913.94 513.273 1913.94 533.945V787.061H1717V533.945C1717 513.273 1727.37 493.447 1745.84 478.83C1764.31 464.212 1789.35 456 1815.47 456Z" fill="#0B081C"/>
</g>
<g clip-path="url(#clip6_3_2)">
<path d="M883.255 393.135C917.337 393.135 950.023 403.885 974.122 423.021C998.222 442.157 1011.76 468.11 1011.76 495.172V826.524H754.75V495.172C754.75 468.11 768.289 442.157 792.388 423.021C816.487 403.885 849.173 393.135 883.255 393.135Z" fill="#0B081C"/>
</g>
<g clip-path="url(#clip7_3_2)">
<path d="M344.697 405.174C366.249 405.174 386.918 411.967 402.157 424.06C417.396 436.153 425.958 452.554 425.958 469.655V679.051H263.436V469.655C263.436 452.554 271.997 436.153 287.237 424.06C302.476 411.967 323.145 405.174 344.697 405.174Z" fill="#0B081C"/>
</g>
<g clip-path="url(#clip8_3_2)">
<path d="M1149 456C1170.75 456 1191.6 464.359 1206.98 479.239C1222.36 494.119 1231 514.3 1231 535.343V793H1067V535.343C1067 514.3 1075.64 494.119 1091.02 479.239C1106.4 464.359 1127.25 456 1149 456Z" fill="#0B081C"/>
</g>
<g clip-path="url(#clip9_3_2)">
<path d="M1009.86 498.473C1027.4 498.473 1044.22 506.461 1056.63 520.68C1069.03 534.898 1076 554.183 1076 574.292V820.505H943.716V574.292C943.716 554.183 950.685 534.898 963.089 520.68C975.493 506.461 992.317 498.473 1009.86 498.473Z" fill="#0B081C"/>
</g>
<g clip-path="url(#clip10_3_2)">
<path d="M617.031 351C649.319 351 680.284 361.153 703.115 379.226C725.946 397.298 738.773 421.81 738.773 447.368V760.312H495.288V447.368C495.288 421.81 508.115 397.298 530.946 379.226C553.777 361.153 584.743 351 617.031 351Z" fill="#0B081C"/>
</g>
<g clip-path="url(#clip11_3_2)">
<path d="M377.023 622C473.303 622 565.639 633.584 633.719 654.204C701.799 674.823 740.046 702.79 740.046 731.951V1089H14V731.951C14 702.79 52.247 674.823 120.327 654.204C188.407 633.584 280.743 622 377.023 622Z" fill="#0B081C"/>
</g>
<g clip-path="url(#clip12_3_2)">
<path d="M993.015 622C1056.14 622 1116.68 634.13 1161.32 655.721C1205.95 677.312 1231.03 706.596 1231.03 737.13V1111H755V737.13C755 706.596 780.077 677.312 824.713 655.721C869.35 634.13 929.89 622 993.015 622Z" fill="#0B081C"/>
</g>
<g clip-path="url(#clip13_3_2)">
<path d="M1582.02 622C1670.08 622 1754.53 633.683 1816.8 654.48C1879.06 675.276 1914.04 703.482 1914.04 732.892V1093H1250V732.892C1250 703.482 1284.98 675.276 1347.25 654.48C1409.51 633.683 1493.96 622 1582.02 622Z" fill="#0B081C"/>
</g>
<path d="M272.351 576H365.667C388.569 576 410.533 585.086 426.727 601.259C442.921 617.433 452.019 639.368 452.019 662.241V760.348H186V662.241C186 639.368 195.098 617.433 211.292 601.259C227.486 585.086 249.45 576 272.351 576Z" fill="#0B081C"/>
<path d="M1351.02 542C1377.81 542 1403.5 552.668 1422.45 571.658C1441.39 590.647 1452.04 616.403 1452.04 643.258V845.112H1250V643.258C1250 616.403 1260.64 590.647 1279.59 571.658C1298.53 552.668 1324.23 542 1351.02 542Z" fill="#0B081C"/>
<path d="M448.351 497.082H541.667C564.569 497.082 586.533 506.168 602.727 522.342C618.921 538.515 628.019 560.451 628.019 583.323V681.43H362V583.323C362 560.451 371.098 538.515 387.292 522.342C403.486 506.168 425.45 497.082 448.351 497.082Z" fill="#0B081C"/>
<path d="M1715.59 391C1743.44 391 1770.16 401.993 1789.85 421.56C1809.55 441.127 1820.61 467.666 1820.61 495.338V834.161H1610.56V495.338C1610.56 467.666 1621.63 441.127 1641.32 421.56C1661.02 401.993 1687.73 391 1715.59 391Z" fill="#0B081C"/>
<path d="M1462.14 463.495C1488.94 463.495 1514.63 474.164 1533.57 493.153C1552.52 512.143 1563.16 537.898 1563.16 564.753V766.607H1361.13V564.753C1361.13 537.898 1371.77 512.143 1390.71 493.153C1409.66 474.164 1435.35 463.495 1462.14 463.495Z" fill="#0B081C"/>
</g>
<defs>
<filter id="filter0_d_3_2" x="-4" y="0" width="1928" height="1088" filterUnits="userSpaceOnUse" color-interpolation-filters="sRGB">
<feFlood flood-opacity="0" result="BackgroundImageFix"/>
<feColorMatrix in="SourceAlpha" type="matrix" values="0 0 0 0 0 0 0 0 0 0 0 0 0 0 0 0 0 0 127 0" result="hardAlpha"/>
<feOffset dy="4"/>
<feGaussianBlur stdDeviation="2"/>
<feComposite in2="hardAlpha" operator="out"/>
<feColorMatrix type="matrix" values="0 0 0 0 0 0 0 0 0 0 0 0 0 0 0 0 0 0 0.25 0"/>
<feBlend mode="normal" in2="BackgroundImageFix" result="effect1_dropShadow_3_2"/>
<feBlend mode="normal" in="SourceGraphic" in2="effect1_dropShadow_3_2" result="shape"/>
</filter>
<clipPath id="clip0_3_2">
<rect width="1920" height="1080" fill="white"/>
</clipPath>
<clipPath id="clip1_3_2">
<rect width="530" height="130" fill="white" transform="translate(112 263)"/>
</clipPath>
<clipPath id="clip2_3_2">
<rect width="373.333" height="186.667" fill="white" transform="translate(617 -22)"/>
</clipPath>
<clipPath id="clip3_3_2">
<rect width="430" height="180" fill="white" transform="translate(1367 111)"/>
</clipPath>
<clipPath id="clip4_3_2">
<rect width="196.923" height="331.061" fill="white" transform="translate(14 405.174)"/>
</clipPath>
<clipPath id="clip5_3_2">
<rect width="196.923" height="331.061" fill="white" transform="translate(1778.95 429.251)"/>
</clipPath>
<clipPath id="clip6_3_2">
<rect width="256.995" height="433.389" fill="white" transform="translate(754.75 393.135)"/>
</clipPath>
<clipPath id="clip7_3_2">
<rect width="162.511" height="273.878" fill="white" transform="translate(263.436 405.174)"/>
</clipPath>
<clipPath id="clip8_3_2">
<rect width="204.084" height="273.878" fill="white" transform="translate(1026.86 456.338)"/>
</clipPath>
<clipPath id="clip9_3_2">
<rect width="132.277" height="322.032" fill="white" transform="translate(943.716 498.473)"/>
</clipPath>
<clipPath id="clip10_3_2">
<rect width="243.469" height="409.312" fill="white" transform="translate(495.288 351)"/>
</clipPath>
<clipPath id="clip11_3_2">
<rect width="726" height="467" fill="white" transform="translate(14 622)"/>
</clipPath>
<clipPath id="clip12_3_2">
<rect width="476" height="489" fill="white" transform="translate(755 622)"/>
</clipPath>
<clipPath id="clip13_3_2">
<rect width="664" height="471" fill="white" transform="translate(1250 622)"/>
</clipPath>
</defs>
</svg>
