<svg width="1920" height="1080" viewBox="0 0 1920 1080" fill="none" xmlns="http://www.w3.org/2000/svg">
<g clip-path="url(#clip0_3_2)">
<path d="M508.718 709.058C551.37 709.058 592.276 729.17 622.435 764.971C652.595 800.772 669.538 849.328 669.538 899.957V1519.88H347.897V899.957C347.897 849.328 364.841 800.772 395.001 764.971C425.16 729.17 466.066 709.058 508.718 709.058Z" fill="#453F68"/>
<path d="M830.359 906.018C890.42 906.018 948.022 926.131 990.491 961.931C1032.96 997.732 1056.82 1046.29 1056.82 1096.92V1716.84H603.897V1096.92C603.897 1046.29 627.757 997.732 670.227 961.931C712.696 926.131 770.298 906.018 830.359 906.018Z" fill="#453F68"/>
<path d="M1270.15 725.471C1321.51 725.471 1370.76 747.701 1407.08 787.27C1443.39 826.839 1463.79 880.506 1463.79 936.466V1621.64H1076.51V936.466C1076.51 880.506 1096.91 826.839 1133.23 787.27C1169.54 747.701 1218.8 725.471 1270.15 725.471Z" fill="#453F68"/>
<path d="M1726.36 863.343C1777.72 863.343 1826.97 885.573 1863.28 925.142C1899.6 964.711 1920 1018.38 1920 1074.34V1759.51H1532.72V1074.34C1532.72 1018.38 1553.12 964.711 1589.43 925.142C1625.75 885.573 1675 863.343 1726.36 863.343Z" fill="#453F68"/>
<path d="M192 837.082C242.922 837.082 291.758 857.195 327.765 892.995C363.772 928.796 384 977.352 384 1027.98V1647.9H0V1027.98C0 977.352 20.2285 928.796 56.2355 892.995C92.2425 857.195 141.078 837.082 192 837.082Z" fill="#453F68"/>
<path d="M193.641 899.453C233.682 899.453 272.083 915.331 300.396 943.595C328.709 971.859 344.615 1010.19 344.615 1050.16V1539.57H42.6667V1050.16C42.6667 1010.19 58.5728 971.859 86.886 943.595C115.199 915.331 153.6 899.453 193.641 899.453Z" fill="#8D86B3"/>
<path d="M1503.18 965.106C1538.87 965.106 1573.09 979.275 1598.33 1004.49C1623.57 1029.71 1637.74 1063.92 1637.74 1099.59V1536.29H1368.62V1099.59C1368.62 1063.92 1382.79 1029.71 1408.03 1004.49C1433.26 979.275 1467.49 965.106 1503.18 965.106Z" fill="#8D86B3"/>
</g>
<defs>
<clipPath id="clip0_3_2">
<rect width="1920" height="1080" fill="white"/>
</clipPath>
</defs>
</svg>
