<svg width="1920" height="1080" viewBox="0 0 1920 1080" fill="none" xmlns="http://www.w3.org/2000/svg">
<g clip-path="url(#clip0_3_2)">
<path d="M883.656 732H1009.72C1040.66 732 1070.33 745.464 1092.21 769.43C1114.09 793.396 1126.38 825.9 1126.38 859.793V1005.17H767V859.793C767 825.9 779.29 793.396 801.168 769.43C823.045 745.464 852.717 732 883.656 732Z" fill="#272049"/>
<g clip-path="url(#clip1_3_2)">
<path d="M214.761 650.862C246.477 650.862 276.893 665.138 299.319 690.551C321.745 715.963 334.343 750.43 334.343 786.369V1056.5H95.1795V786.369C95.1795 750.43 107.778 715.963 130.204 690.551C152.63 665.138 183.046 650.862 214.761 650.862Z" fill="#272049"/>
</g>
<path d="M1920 530.578C1947.85 530.578 1974.57 541.57 1994.26 561.137C2013.96 580.705 2025.03 607.243 2025.03 634.915V973.739H1814.97V634.915C1814.97 607.243 1826.04 580.705 1845.74 561.137C1865.43 541.57 1892.15 530.578 1920 530.578Z" fill="#272049"/>
<path d="M1022.36 589.666C1053.26 589.666 1082.9 601.88 1104.75 623.621C1126.6 645.362 1138.87 674.85 1138.87 705.597V1082.07H905.846V705.597C905.846 674.85 918.122 645.362 939.972 623.621C961.822 601.88 991.458 589.666 1022.36 589.666Z" fill="#272049"/>
<path d="M1839.59 711.125C1870.49 711.125 1900.13 723.339 1921.98 745.08C1943.83 766.821 1956.1 796.309 1956.1 827.056V1203.53H1723.08V827.056C1723.08 796.309 1735.35 766.821 1757.2 745.08C1779.05 723.339 1808.69 711.125 1839.59 711.125Z" fill="#272049"/>
<path d="M1209.44 711.125C1240.34 711.125 1269.97 723.339 1291.82 745.08C1313.67 766.821 1325.95 796.309 1325.95 827.056V1203.53H1092.92V827.056C1092.92 796.309 1105.2 766.821 1127.05 745.08C1148.9 723.339 1178.53 711.125 1209.44 711.125Z" fill="#272049"/>
<path d="M1668.92 579.818C1699.82 579.818 1729.46 592.032 1751.31 613.773C1773.16 635.514 1785.44 665.002 1785.44 695.749V1072.22H1552.41V695.749C1552.41 665.002 1564.69 635.514 1586.54 613.773C1608.39 592.032 1638.02 579.818 1668.92 579.818Z" fill="#272049"/>
<path d="M1435.9 737.386C1478.11 737.386 1518.6 746.262 1548.45 762.06C1578.31 777.859 1595.08 799.287 1595.08 821.629V1095.2H1276.72V821.629C1276.72 799.287 1293.49 777.859 1323.34 762.06C1353.19 746.262 1393.68 737.386 1435.9 737.386Z" fill="#272049"/>
<path d="M-1.37091e-06 530.578C27.8545 530.578 54.5682 542.873 74.2643 564.759C93.9605 586.646 105.026 616.33 105.026 647.281V1026.26H-105.026V647.281C-105.026 616.33 -93.9605 586.646 -74.2643 564.759C-54.5682 542.873 -27.8545 530.578 -1.37091e-06 530.578Z" fill="#272049"/>
<path d="M533.333 675.015C564.234 675.015 593.87 687.229 615.72 708.971C637.571 730.712 649.846 760.199 649.846 790.946V1167.42H416.821V790.946C416.821 760.199 429.096 730.712 450.946 708.971C472.797 687.229 502.432 675.015 533.333 675.015Z" fill="#272049"/>
<path d="M720.41 796.474C751.311 796.474 780.947 808.688 802.797 830.43C824.648 852.171 836.923 881.658 836.923 912.405V1288.88H603.897V912.405C603.897 881.658 616.173 852.171 638.023 830.43C659.874 808.688 689.509 796.474 720.41 796.474Z" fill="#272049"/>
<path d="M987.5 918C1249.4 918 1500.58 927.203 1685.77 943.584C1870.96 959.965 1975 982.182 1975 1005.35V1289H0V1005.35C0 982.182 104.04 959.965 289.232 943.584C474.424 927.203 725.599 918 987.5 918Z" fill="#272049"/>
<path d="M678 588C701.604 588 724.242 598.22 740.933 616.411C757.623 634.602 767 659.275 767 685.001V1000H589V685.001C589 659.275 598.377 634.602 615.067 616.411C631.758 598.22 654.396 588 678 588Z" fill="#272049"/>
<path d="M383.5 778C409.093 778 433.639 789.41 451.736 809.721C469.833 830.032 480 857.579 480 886.302V1238H287V886.302C287 857.579 297.167 830.032 315.264 809.721C333.361 789.41 357.907 778 383.5 778Z" fill="#272049"/>
</g>
<defs>
<clipPath id="clip0_3_2">
<rect width="1920" height="1080" fill="white"/>
</clipPath>
<clipPath id="clip1_3_2">
<rect width="239.164" height="405.635" fill="white" transform="translate(95.1795 650.862)"/>
</clipPath>
</defs>
</svg>
