<?xml version="1.0" encoding="UTF-8" standalone="no"?>
<!DOCTYPE svg PUBLIC "-//W3C//DTD SVG 1.1//EN" "http://www.w3.org/Graphics/SVG/1.1/DTD/svg11.dtd">
<svg width="100%" height="100%" viewBox="0 0 16 16" version="1.1" xmlns="http://www.w3.org/2000/svg" xmlns:xlink="http://www.w3.org/1999/xlink" xml:space="preserve" xmlns:serif="http://www.serif.com/" style="fill-rule:evenodd;clip-rule:evenodd;stroke-linecap:round;stroke-linejoin:round;">
    <g transform="matrix(0.743937,0,0,0.8875,5.724252,0.9)">
        <path d="M4,12L4,4L8,9L12,4L12,12" style="fill:none;fill-rule:nonzero;stroke:rgb(188,132,219);stroke-width:2px;"/>
    </g>
    <g transform="matrix(0.868937,0,0,0.868937,-2.998893,1.048504)">
        <path d="M7,3C5.354,3 4,4.354 4,6C4,7.646 5.354,9 7,9L9,9C9.549,9 10,9.451 10,10C10,10.549 9.549,11 9,11L5.474,11C4.925,11 4.474,11.451 4.474,12C4.474,12.549 4.925,13 5.474,13L9,13C10.646,13 12,11.646 12,10C12,8.354 10.646,7 9,7L7,7C6.451,7 6,6.549 6,6C6,5.451 6.451,5 7,5L10,5C10.549,5 11,4.549 11,4C11,3.451 10.549,3 10,3L7,3Z" style="fill:rgb(188,132,219);fill-rule:nonzero;"/>
    </g>
</svg>
